<?xml version='1.0' encoding='utf-8'?>
<svg xmlns="http://www.w3.org/2000/svg" clip-rule="evenodd" fill-rule="evenodd" stroke-linejoin="round" stroke-miterlimit="2" version="1.1" viewBox="0 0 6514 6175"> <g transform="translate(-19562 -39411)"> <g transform="matrix(.92899 0 0 1 -6640.3 19370)"> <rect x="28206" y="20041" width="7011.8" height="6174.6" fill="url(#a)"/> </g> <g transform="matrix(4.5833 0 0 4.5833 -107297 -156365)"> <g transform="matrix(4.1667 0 0 4.1667 28925 43682)"> <path d="m0-2.636-8.883-3.466c1.439-4.718 2.344-9.361 2.835-13.861l9.288 2.452c-0.606 4.834-1.65 9.815-3.24 14.875m-2.849 7.752c-1.725 4.051-3.771 7.938-6.098 11.665l-8.24-4.758c2.141-3.394 4.01-6.941 5.584-10.637 0.158-0.37 0.297-0.738 0.448-1.107l8.863 3.458c-0.186 0.46-0.36 0.918-0.557 1.379m-21.597 30.194-6.411-7.03c3.638-3.317 6.886-6.896 9.777-10.687l8.302 4.793c-3.412 4.609-7.293 8.935-11.668 12.924m-103-9.441c0 10.884-8.824 19.708-19.708 19.708-10.885 0-19.708-8.824-19.708-19.708 0-10.885 8.823-19.708 19.708-19.708 10.884 0 19.708 8.823 19.708 19.708m-19.708-34.666c-10.885 0-19.708-8.823-19.708-19.708 0-10.884 8.823-19.708 19.708-19.708 10.884 0 19.708 8.824 19.708 19.708 0 10.885-8.824 19.708-19.708 19.708m35.735 7.269c0 4.015-3.255 7.27-7.269 7.27-4.015 0-7.269-3.255-7.269-7.27 0-4.014 3.254-7.269 7.269-7.269 4.014 0 7.269 3.255 7.269 7.269m1.489-26.977c0-10.884 8.824-19.708 19.708-19.708s19.708 8.824 19.708 19.708c0 10.885-8.824 19.708-19.708 19.708s-19.708-8.823-19.708-19.708m19.708 34.666c10.884 0 19.708 8.823 19.708 19.708 0 10.884-8.824 19.708-19.708 19.708s-19.708-8.824-19.708-19.708c0-10.885 8.824-19.708 19.708-19.708m94.129-35.873c0.021 1.758 9e-3 3.537-0.076 5.354l-9.424-2.488c0.257-11.618-1.998-21.903-4.396-29.431-4.459-5.921-8.862-10.535-11.77-13.403 5.201 10.674 15.178 35.326 7.857 62.849-6.408 24.088-24.547 44.641-49.588 57.539 12.824-13.599 20.71-31.904 20.71-52.027 0-41.855-34.052-75.907-75.908-75.907s-75.908 34.052-75.908 75.907c0 41.857 34.052 75.909 75.908 75.909 15.428 0 29.788-4.639 41.781-12.578 47.815-10.081 79.789-40.254 82.907-70.938 0.739-7.273-0.183-14.263-2.093-20.786" fill="#2d2c2c" fill-rule="nonzero"/> </g> <g transform="matrix(4.1667 0 0 4.1667 28780 43158)"> <path d="m0-1.783 6.253-9.785-2.476-1.582-6.542 10.239c-3.225-1.297-6.399-2.511-9.368-3.573-18.012-6.446-39.416-11.296-40.515-8.223-0.364 1.014 1.539 2.766 4.884 4.887 7.987 0.982 21.571 4.581 33.64 8.9 2.585 0.925 5.327 1.968 8.121 3.077l-0.571 0.893 2.475 1.582 0.868-1.358c9.409 3.844 19.045 8.317 25.16 11.847 4.794 0.792 8.02 0.876 8.383-0.138 0.868-2.422-14.811-10.357-30.312-16.766" fill="#ea5438" fill-rule="nonzero"/> </g> <g transform="matrix(-.072317 -4.166 -4.166 .072317 28856 43056)"> <rect x="-11.106" y="-8.31" width="2.937" height="19.225" fill="#ea5438"/> </g> <g transform="matrix(.4108 -4.1464 -4.1464 -.4108 28807 43095)"> <path d="m-1.971-0.665c0.844 0.103 1.687 0.203 2.53 0.306-0.843 0.803-1.687 1.608-2.53 2.412-0.366-0.72-0.732-1.44-1.097-2.16 0.366-0.186 0.732-0.372 1.097-0.558" fill="#ea5438" fill-rule="nonzero"/> </g> <g transform="matrix(4.1667 0 0 4.1667 28727 43104)"> <path d="m0 13.131-6.367-14.408c-0.487-1.102-1.777-1.601-2.878-1.114l-14.408 6.367c-1.103 0.488-1.602 1.776-1.115 2.879 7.885 3.051 15.77 6.103 23.654 9.154 1.102-0.487 1.601-1.775 1.114-2.878" fill="#b5b3b2" fill-rule="nonzero"/> </g> <g transform="matrix(4.1667 0 0 4.1667 28825 43147)"> <path d="m0 11.503-5.578-12.622c-0.427-0.965-1.556-1.402-2.522-0.976l-12.621 5.578c-0.966 0.427-1.403 1.556-0.976 2.522l20.721 8.019c0.965-0.426 1.403-1.555 0.976-2.521" fill="#b5b3b2" fill-rule="nonzero"/> </g> <g transform="matrix(4.1667 0 0 4.1667 28750 43130)"> <path d="m0 10.196-4.943-11.188c-0.379-0.855-1.379-1.243-2.236-0.865l-11.187 4.945c-0.856 0.378-1.243 1.379-0.864 2.234 6.121 2.37 12.244 4.739 18.366 7.109 0.855-0.379 1.243-1.379 0.864-2.235" fill="#747271" fill-rule="nonzero"/> </g> <g transform="matrix(4.1667 0 0 4.1667 28709 43478)"> <path d="m0-69.89c-14.327-5.127-29.233-12.375-35.592-17.398l-13.842 57.868c-5.272-21.131-10.545-42.262-15.817-63.392-2.573 3.908-5.172 7.789-7.792 11.646 5.267 17.805 10.534 35.61 15.801 53.416 2.673 0.343 5.298 0.834 7.877 1.447 25.384 6.046 45.815 24.821 54.17 49.225l39.751-81.758c0.01-0.032 6e-3 -0.069 0.012-0.102-9.366-0.425-29.664-5.618-44.568-10.952" fill="#ea5438" fill-rule="nonzero"/> </g> <g transform="matrix(4.1667 0 0 4.1667 28416 43003)"> <path d="m0 85.86c-4.09-12.999-8.181-25.997-12.271-38.995-1.221 1.73-2.442 3.46-3.673 5.182l-9.294-7.449c2.852-3.999 5.677-8.02 8.462-12.049-3.141-9.98-6.281-19.96-9.422-29.94l-18.337-4.612c10.079 29.956 20.159 59.911 30.238 89.866 4.618-1.101 9.395-1.789 14.297-2.003" fill="#ea5438" fill-rule="nonzero"/> </g> <g transform="matrix(4.1667 0 0 4.1667 28310 43077)"> <path d="m0 73.651c-10.026-28.278-20.051-56.557-30.077-84.835l-7.044 10.014c-0.831 1.181-2.303 1.728-3.704 1.376l-12.167-3.06 34.103 87.689c5.68-4.589 12.032-8.372 18.889-11.184" fill="#ea5438" fill-rule="nonzero"/> </g> <g transform="matrix(3.5369 -2.2026 -2.2026 -3.5369 28269 43386)"> <path d="m-25.427-6.953c5.797 33.822 11.593 67.645 17.389 101.47l-17.389-7.369c-5.048-33.463-10.098-66.928-15.147-100.39 4.825 2.645 9.904 4.753 15.147 6.293" fill="#ea5438" fill-rule="nonzero"/> </g> <g transform="matrix(4.1667 0 0 4.1667 28127 43163)"> <path d="m0 101.19c-16.455-36.383-32.91-72.767-49.365-109.15l-8.312-2.087c-2.9-0.729-5.313 2.29-3.963 4.959 19.743 39.019 39.484 78.038 59.226 117.06 0.545-3.686 1.359-7.284 2.414-10.778" fill="#ea5438" fill-rule="nonzero"/> </g> <g transform="matrix(-.9676 -4.0528 -4.0528 .9676 28556 43179)"> <path d="m-8.076 18.706h26.758c-2.838-5.874-5.676-11.747-8.515-17.622-6.981 3.462-13.962 6.924-20.944 10.386 0.901 2.412 1.801 4.823 2.701 7.236" fill="#2d2c2c" fill-rule="nonzero"/> </g> <g transform="matrix(4.1667 0 0 4.1667 28849 43642)"> <path d="m0-34.813c-1.446-8.796-4.05-15.916-6.284-20.95-3.404 7.158-6.81 14.316-10.214 21.473 3.518 6.614 7.529 16.145 8.904 28.021 1.862 16.074-2.234 26.7-1.362 26.902 1.371 0.317 13.903-25.369 8.956-55.446" fill="#2d2c2c" fill-rule="nonzero"/> </g> <g transform="matrix(4.1667 0 0 4.1667 27914 43479)"> <path d="m0-52.976c-1.433 7.48-2.622 16.132-3.121 25.768-0.526 10.151-0.179 19.309 0.553 27.208 0.509-6.205 1.936-14.394 5.732-23.28 1.635-3.826 3.449-7.173 5.242-10.049-2.802-6.548-5.604-13.098-8.406-19.647" fill="#2d2c2c" fill-rule="nonzero"/> </g> <g transform="matrix(4.1667 0 0 4.1667 28414 42981)"> <path d="m0 13.547c0.567-0.876 1.114-1.766 1.678-2.645l-4.839-19.391c-0.725-2.907-4.535-3.608-6.248-1.15-1.627 2.337-3.255 4.675-4.883 7.012 2.576 8.708 5.152 17.415 7.728 26.123 1.071-1.611 2.158-3.206 3.22-4.826l8.7 6.974c-0.812-3.252-1.622-6.503-2.434-9.754l-2.922-2.343z" fill="#ea5438" fill-rule="nonzero"/> </g> <g transform="matrix(4.1667 0 0 4.1667 28316 43014)"> <path d="M0,7.016C-0.736,4.677 -1.472,2.339 -2.208,0C-1.472,2.339 -0.736,4.677 0,7.016" fill="#faea25" fill-rule="nonzero"/> </g> <g transform="matrix(4.1667 0 0 4.1667 27871 42847)"> <path d="m0 70.755c-1.35-2.668 1.062-5.687 3.963-4.959l8.311 2.087c3.802 0.955 7.603 1.91 11.405 2.865 1.4 0.352 2.872-0.196 3.703-1.377l0.516-0.733 10.865-15.446 1.254-1.783c0.831-1.181 2.304-1.728 3.704-1.376l8.822 2.218 12.166 3.06c1.401 0.352 2.874-0.195 3.705-1.376l12.451-17.701c0.831-1.182 2.304-1.729 3.705-1.377l1.836 0.462 18.337 4.611 1.112 0.28c1.407 0.354 2.885-0.2 3.714-1.39 2.195-3.151 4.39-6.302 6.585-9.453 1.628-2.337 3.256-4.675 4.883-7.011 1.713-2.458 5.523-1.758 6.248 1.149l1.373 5.5c6.296-4.402 8.763-12.794 5.457-20.033-2.607-5.708-8.109-9.169-13.971-9.463-0.174-1.726-0.614-3.454-1.375-5.12-3.726-8.156-13.358-11.749-21.515-8.023-7.347 3.355-10.97 11.502-8.898 19.048-0.417 0.46-0.796 0.946-1.155 1.446-4.548-3.13-10.569-3.878-15.956-1.417-6.061 2.768-9.594 8.797-9.485 15.059-0.422 0.152-0.843 0.31-1.259 0.5-1.35 0.617-2.561 1.408-3.648 2.315-4.662-4.485-11.758-5.93-17.999-3.08-4.676 2.136-7.841 6.215-8.999 10.842-3.637-1.088-7.664-0.928-11.389 0.773-1.748 0.799-3.272 1.881-4.573 3.15-3.667-1.126-7.738-0.981-11.501 0.737-8.157 3.725-11.748 13.358-8.023 21.515 0.242 0.529 0.511 1.038 0.801 1.529-5.28 4.6-7.159 12.284-4.101 18.979 3.08 6.743 10.198 10.353 17.181 9.3-2.75-5.436-5.5-10.871-8.25-16.307" fill="#faea25" fill-rule="nonzero"/> </g> <g transform="matrix(4.1667 0 0 4.1667 28453 43491)"> <path d="m0-101.56-9.324-7.474c3.009-4.651 5.977-9.334 8.907-14.038l9.343 7.489c-2.938 4.699-5.912 9.376-8.926 14.023m-11.824 17.798-9.31-7.462c2.85-4.198 5.673-8.427 8.467-12.687l9.323 7.474c-2.798 4.256-5.627 8.48-8.48 12.675m-12.949 18.556-9.294-7.45c3.202-4.487 6.377-9.001 9.489-13.525l9.302 7.455c-3.119 4.525-6.294 9.036-9.497 13.52m37.379-55.26c-3.266-2.609-6.533-5.217-9.8-7.825l7.01-11.582c-0.368-2.555-0.735-5.11-1.102-7.665-69.846 117.94-114.45 173.02-133.82 165.24-10.299-4.136-13.461-26.049-9.484-65.742-16.229 49.404-19.199 77.272-8.911 83.607 16.897 10.404 69.555-37.277 157.98-143.04-0.623-4.332-1.247-8.664-1.87-12.995" fill="#2d2c2c" fill-rule="nonzero"/> </g> <g transform="matrix(2.7053 -3.169 -3.169 -2.7053 28759 43425)"> <path d="m-24.746-10.38c-1.208 0.59 9.101 14.396 8.165 34.602-0.799 17.253-9.297 28.338-8.165 28.924 1.263 0.655 13.78-12.18 14.682-29.3 1.025-19.4-13.36-34.871-14.682-34.226" fill="#cd4639" fill-rule="nonzero"/> </g> <g transform="matrix(4.1667 0 0 4.1667 28466 43589)"> <path d="m0-49.458c-2.408-0.266-36.09-3.449-59.708 20.426-13.64 13.79-18.489 31.111-17.283 31.818 1.131 0.663 6.719-13.8 21.997-26.122 19.557-15.773 42.483-17.95 48.709-18.462 18.867-1.554 32.433 3.132 32.8 1.571 0.354-1.513-11.986-7.625-26.515-9.231" fill="#444341" fill-rule="nonzero"/> </g> <g transform="matrix(-4.0553 -.95683 -.95683 4.0553 28461 43602)"> <path d="m-11.048-29.255c0.742-0.545 8.854 5.044 9.437 13.202 0.659 9.221-8.683 16.434-9.437 15.931-0.664-0.444 5.626-6.675 5.152-15.732-0.418-7.975-5.802-12.923-5.152-13.401" fill="#b5b3b2" fill-rule="nonzero"/> </g> <g transform="matrix(-.9567 4.0554 4.0554 .9567 28346 43783)"> <path d="m10.164-22.496c0.741-0.544 8.853 5.045 9.437 13.202 0.659 9.22-8.682 16.433-9.437 15.93-0.664-0.443 5.625-6.673 5.151-15.731-0.417-7.975-5.803-12.923-5.151-13.401" fill="#b5b3b2" fill-rule="nonzero"/> </g> <g transform="matrix(3.5848 2.1237 2.1237 -3.5848 28284 43606)"> <path d="m7.566-3.351c0.742-0.545 8.854 5.045 9.437 13.202 0.658 9.22-8.683 16.432-9.437 15.93-0.664-0.444 5.625-6.673 5.152-15.731-0.417-7.974-5.803-12.923-5.152-13.401" fill="#b5b3b2" fill-rule="nonzero"/> </g> <g transform="matrix(2.4715 -3.3545 -3.3545 -2.4715 28632 43747)"> <path d="m-13.065-4.668c0.741-0.544 8.853 5.045 9.436 13.202 0.66 9.22-8.681 16.433-9.436 15.931-0.665-0.443 5.625-6.673 5.152-15.731-0.418-7.974-5.804-12.924-5.152-13.402" fill="#b5b3b2" fill-rule="nonzero"/> </g> <g transform="matrix(-3.6579 -1.9953 -1.9953 3.6579 28728 43203)"> <path d="m5.029 4.617c-23.257-3.297-37.144-10.581-37.536-9.608-0.433 1.078 15.801 11.847 37.536 14.53 18.472 2.281 34.304-2.095 34.225-3.181-0.074-1.005-13.782 1.158-34.225-1.741" fill="#cd4639" fill-rule="nonzero"/> </g> <g transform="matrix(4.1667 0 0 4.1667 28184 43233)"> <path d="m0-40.329 13.879 40.329c-3.004-2.797-7.864-8.068-11.129-16.105-4.297-10.577-3.415-19.99-2.75-24.224" fill="#cd4639" fill-rule="nonzero"/> </g> <g transform="matrix(4.1667 0 0 4.1667 28388 43343)"> <path d="m0-28.813c2.743 9.604 5.487 19.208 8.23 28.813 0.624-3.187 1.566-10.372-1.599-18.414-1.917-4.871-4.652-8.307-6.631-10.399" fill="#b5b3b2" fill-rule="nonzero"/> </g> <g transform="matrix(4.1667 0 0 4.1667 28076 43162)"> <path d="M0,68.218L-30.116,0C-24.119,7.024 -16.467,17.501 -10.213,31.556C-3.811,45.946 -1.164,58.938 0,68.218" fill="#b5b3b2" fill-rule="nonzero"/> </g> <g transform="matrix(-3.9357 1.368 1.368 3.9357 27909 43569)"> <path d="m-0.816-25.064c-0.774 0.297 5.845 11.397 1.572 21.32-0.767 1.782-2.146 4.134-1.572 4.602 0.68 0.553 4.004-1.604 5.617-4.12 5.036-7.857-4.726-22.143-5.617-21.802" fill="#444341" fill-rule="nonzero"/> </g> </g> </g> <defs> <linearGradient id="a" x2="1" gradientTransform="matrix(7011.8 6174.6 -6646.6 6513.9 28206 20041)" gradientUnits="userSpaceOnUse"> <stop stop-color="#feffdf" offset="0"/> <stop stop-color="#fbffd0" offset=".55"/> <stop stop-color="#f0ff48" offset="1"/> </linearGradient> </defs> </svg>